#!OML:ASF G:\JayActor3\Patient Classification 1\Patient 1\Session 5\male.ASF
:FULLY-SPECIFIED
:DEGREES
449
root 25.6494 16.1487 -4.53563 -30.593 84.2084 -54.67
lowerback 28.3947 -0.369821 1.11844
upperback 6.46509 0.298014 -0.563215
thorax -8.42635 0.32333 -1.40833
lowerneck 4.76136 0.20327 0.883775
upperneck -18.2744 1.04789 2.01921
head -6.33101 0.441551 0.406502
rclavicle 1.03368e-014 3.57812e-015
rhumerus -29.2459 4.75874 -90.2602
rradius 36.3847
rwrist -3.70639
rhand -21.5649 -5.88143
rfingers 7.12502
rthumb 4.82893 -35.8064
lclavicle 1.03368e-014 3.57812e-015
lhumerus -27.565 -5.03214 85.2457
lradius 33.8748
lwrist 21.5494
lhand -21.4413 8.43774
lfingers 7.12502
lthumb 4.94825 38.36
rfemur -36.2059 6.80573 25.9155
rtibia 47.8198
rfoot -31.2016 -13.6833
rtoes -0.322272
lfemur -57.6925 11.2177 -27.0776
ltibia 20.2267
lfoot 17.1852 4.2148
ltoes -3.51916
450
root 25.5103 16.1386 -4.49934 -31.3798 84.3816 -55.1033
lowerback 28.6462 -0.387054 1.00671
upperback 6.56328 0.261514 -0.5607
thorax -8.44052 0.314464 -1.33078
lowerneck 4.80895 0.182711 0.916084
upperneck -18.3233 1.02224 1.99952
head -6.35452 0.427875 0.396464
rclavicle -1.55052e-014 -2.14687e-014
rhumerus -29.2179 4.80005 -90.2932
rradius 36.452
rwrist -3.7284
rhand -21.5026 -6.05924
rfingers 7.12502
rthumb 4.88905 -35.9828
lclavicle -1.55052e-014 -2.14687e-014
lhumerus -27.5508 -5.01024 85.2741
lradius 33.8491
lwrist 21.551
lhand -21.4866 8.53365
lfingers 7.12502
lthumb 4.90449 38.4569
rfemur -36.396 6.82758 25.9968
rtibia 47.9458
rfoot -31.2999 -13.9038
rtoes 0.550042
lfemur -57.7248 11.2095 -26.9262
ltibia 19.95
lfoot 18.6307 4.02055
ltoes -3.9262
451
root 25.3707 16.1298 -4.46206 -32.4326 84.5665 -55.8092
lowerback 28.9005 -0.402795 0.900376
upperback 6.66214 0.229394 -0.550093
thorax -8.45451 0.307747 -1.24864
lowerneck 4.86425 0.155733 0.961074
upperneck -18.3855 0.991297 1.98683
head -6.38367 0.410206 0.386883
rclavicle -1.59028e-015 9.54166e-015
rhumerus -29.185 4.813 -90.3109
rradius 36.4958
rwrist -3.72307
rhand -21.4429 -6.22258
rfingers 7.12502
rthumb 4.94671 -36.1448
lclavicle -1.59028e-015 9.54166e-015
lhumerus -27.5248 -5.00542 85.3135
lradius 33.8138
lwrist 21.5413
lhand -21.5087 8.6811
lfingers 7.12502
lthumb 4.88321 38.6048
rfemur -36.6025 6.84888 26.0836
rtibia 48.0875
rfoot -31.3562 -14.1341
rtoes 1.29716
lfemur -57.7424 11.1228 -26.6475
ltibia 19.6887
lfoot 20.1161 3.91016
ltoes -4.19479
452
root 25.2312 16.1217 -4.42439 -33.8047 84.7374 -56.8493
lowerback 29.1465 -0.413851 0.815393
upperback 6.76002 0.209948 -0.529641
thorax -8.46454 0.306598 -1.17198
lowerneck 4.92168 0.124101 0.999376
upperneck -18.4496 0.957822 1.99874
head -6.41396 0.389861 0.386442
rclavicle 7.15625e-015 -1.86858e-014
rhumerus -29.1484 4.80677 -90.3113
rradius 36.516
rwrist -3.70881
rhand -21.3904 -6.3459
rfingers 7.12502
rthumb 4.99741 -36.267
lclavicle 7.15625e-015 -1.86858e-014
lhumerus -27.4889 -5.01425 85.3632
lradius 33.7747
lwrist 21.5128
lhand -21.4746 8.89473
lfingers 7.12502
lthumb 4.91608 38.8177
rfemur -36.8505 6.86207 26.199
rtibia 48.2691
rfoot -31.3552 -14.3532
rtoes 1.93374
lfemur -57.7507 10.9448 -26.1875
ltibia 19.4651
lfoot 21.6029 3.95145
ltoes -4.22805
453
root 25.0922 16.114 -4.38719 -35.5303 84.8748 -58.2641
lowerback 29.3827 -0.422282 0.766731
upperback 6.85248 0.204511 -0.499339
thorax -8.47501 0.311107 -1.11002
lowerneck 4.98199 0.0930885 1.03021
upperneck -18.5123 0.927925 2.02985
head -6.4445 0.370249 0.393148
rclavicle -2.38542e-015 -4.37326e-015
rhumerus -29.1158 4.78593 -90.2996
rradius 36.5168
rwrist -3.68472
rhand -21.3552 -6.42544
rfingers 7.12502
rthumb 5.03139 -36.3457
lclavicle -2.38542e-015 -4.37326e-015
lhumerus -27.4501 -5.02589 85.4189
lradius 33.7321
lwrist 21.4814
lhand -21.414 9.11314
lfingers 7.12502
lthumb 4.97465 39.0347
rfemur -37.1621 6.85229 26.3594
rtibia 48.5118
rfoot -31.2973 -14.5343
rtoes 2.51357
lfemur -57.7608 10.6767 -25.5205
ltibia 19.3077
lfoot 23.0119 4.15251
ltoes -4.06523
